<svg xmlns="http://www.w3.org/2000/svg" width="1440" height="900" viewBox="0 0 1440 900">
  <defs>
    <linearGradient id="panel" x1="0" y1="0" x2="1" y2="1">
      <stop offset="0" stop-color="#15191f"/>
      <stop offset="1" stop-color="#202321"/>
    </linearGradient>
    <linearGradient id="hot" x1="0" y1="0" x2="1" y2="1">
      <stop offset="0" stop-color="#ffd166"/>
      <stop offset="1" stop-color="#ef476f"/>
    </linearGradient>
  </defs>
  <rect width="1440" height="900" fill="#0f1115"/>
  <rect x="56" y="60" width="1328" height="780" rx="22" fill="url(#panel)"/>
  <rect x="94" y="104" width="284" height="692" rx="18" fill="#11161b"/>
  <text x="124" y="152" font-family="Inter, Segoe UI, Arial" font-size="31" font-weight="800" fill="#fff">Spark</text>
  <text x="124" y="180" font-family="Inter, Segoe UI, Arial" font-size="14" fill="#9ca3af">Aurora theme</text>
  <rect x="124" y="224" width="224" height="64" rx="16" fill="#22272e"/>
  <rect x="124" y="312" width="224" height="64" rx="16" fill="#3b2d31"/>
  <rect x="124" y="400" width="224" height="64" rx="16" fill="#22272e"/>
  <rect x="430" y="104" width="886" height="64" rx="18" fill="#11161b"/>
  <text x="466" y="143" font-family="Inter, Segoe UI, Arial" font-size="20" font-weight="700" fill="#fff">@lina</text>
  <text x="1240" y="143" font-family="Inter, Segoe UI, Arial" font-size="14" fill="#ffd166">active</text>
  <rect x="490" y="230" width="410" height="76" rx="20" fill="#262a31"/>
  <text x="518" y="263" font-family="Inter, Segoe UI, Arial" font-size="16" fill="#fff">This version is warmer and more playful.</text>
  <rect x="790" y="346" width="454" height="84" rx="20" fill="#5a293b"/>
  <rect x="790" y="346" width="4" height="84" rx="2" fill="#ffd166"/>
  <text x="818" y="379" font-family="Inter, Segoe UI, Arial" font-size="16" fill="#fff">Could be used as a second theme later.</text>
  <rect x="490" y="474" width="510" height="76" rx="20" fill="#262a31"/>
  <text x="518" y="507" font-family="Inter, Segoe UI, Arial" font-size="16" fill="#fff">The app can keep one layout and swap palettes.</text>
  <rect x="430" y="724" width="886" height="64" rx="20" fill="#11161b"/>
  <text x="466" y="764" font-family="Inter, Segoe UI, Arial" font-size="15" fill="#9ca3af">Message...</text>
  <circle cx="1264" cy="756" r="23" fill="url(#hot)"/>
</svg>
